<svg width="193" height="48" viewBox="0 0 193 48" fill="none" xmlns="http://www.w3.org/2000/svg">
<g opacity="0.2">
<path d="M2.34273 47.3069L0.650889 38.498H10.8027C11.5402 38.498 11.909 38.1717 11.909 37.5192V28.9061C11.909 28.2536 11.7789 27.8621 11.5186 27.7316C11.2583 27.6011 10.8027 27.5359 10.152 27.5359H5.27127C4.57711 27.5359 3.91548 27.4815 3.2864 27.3727C2.65731 27.264 2.09329 27.0138 1.59436 26.6223C1.09542 26.2308 0.704967 25.6871 0.422993 24.9911C0.141019 24.295 0 23.3598 0 22.1853V6.13358C0 4.26303 0.509739 2.77316 1.52928 1.6639C2.54883 0.554633 4.16485 0 6.37743 0H19.3926L21.0195 8.80886H10.3471C9.56615 8.80886 9.17569 9.15685 9.17569 9.85288V18.466C9.17569 18.9445 9.29498 19.2707 9.53361 19.4448C9.77224 19.6188 10.1302 19.7058 10.6074 19.7058H16.5293C18.0477 19.7058 19.2082 20.0646 20.0108 20.7824C20.8135 21.5002 21.2147 22.7508 21.2147 24.5343V40.1293C21.2147 42.7393 20.6833 44.5882 19.6204 45.6756C18.5575 46.763 16.6812 47.3069 13.9913 47.3069H2.34273ZM35.4663 8.28686C34.9023 8.28686 34.6203 8.59138 34.6203 9.20037V38.0412C34.6203 38.3892 34.6746 38.6393 34.783 38.7916C34.8915 38.9438 35.141 39.0199 35.5314 39.0199H39.1106C39.501 39.0199 39.7505 38.9438 39.859 38.7916C39.9674 38.6393 40.0216 38.3892 40.0216 38.0412V9.20037C40.0216 8.59138 39.7397 8.28686 39.1757 8.28686H35.4663ZM49.5878 40.586C49.5878 41.4995 49.4793 42.3587 49.2624 43.1634C49.0455 43.9682 48.6767 44.675 48.1561 45.284C47.6355 45.893 46.9414 46.3824 46.0737 46.7522C45.206 47.1219 44.1214 47.3068 42.8199 47.3068H31.8872C30.5856 47.3068 29.501 47.1219 28.6334 46.7522C27.7657 46.3824 27.0716 45.893 26.5509 45.284C26.0303 44.675 25.6616 43.9682 25.4447 43.1634C25.2278 42.3587 25.1193 41.4995 25.1193 40.586V6.13358C25.1193 4.26303 25.629 2.77316 26.6486 1.6639C27.6681 0.554633 29.2841 0 31.4967 0H43.2104C45.4229 0 47.0391 0.554633 48.0585 1.6639C49.0779 2.77316 49.5878 4.26303 49.5878 6.13358V40.586ZM62.668 24.9911V47.3069H53.4923V0H63.4489L68.5899 19.9668L73.7309 0H83.7526V47.3069H74.5769V24.9911L68.5899 43.9138L62.668 24.9911ZM87.6572 0H106.009L107.635 8.80886H97.3535V20.032H105.163V28.1884H97.3535V38.498H107.245L105.618 47.3069H87.6572V0ZM120.26 8.28686L120.26 20.6845H124.685C125.032 20.6845 125.314 20.5866 125.531 20.3909C125.748 20.1951 125.857 19.8798 125.857 19.4448V9.20037C125.857 8.59138 125.575 8.28686 125.011 8.28686H120.26ZM125.987 29.2324C125.987 28.7104 125.857 28.3514 125.596 28.1557C125.336 27.9599 124.989 27.862 124.555 27.862H120.26V39.0199H125.011C125.401 39.0199 125.661 38.9438 125.792 38.7916C125.922 38.6393 125.987 38.3892 125.987 38.0412V29.2324ZM134.902 18.727C134.902 19.9015 134.674 20.9129 134.219 21.7612C133.763 22.6094 132.907 23.2076 131.648 23.5556C132.95 23.6425 133.894 24.0993 134.479 24.9258C135.065 25.7524 135.358 26.6876 135.358 27.7316V39.9988C135.358 42.6088 134.815 44.4792 133.731 45.6103C132.646 46.7415 130.737 47.3069 128.004 47.3069H110.889V0H129.306C131.171 0 132.57 0.522007 133.503 1.56602C134.436 2.61003 134.902 4.00203 134.902 5.74207V18.727ZM148.698 8.28686V24.5996H153.319C153.926 24.5996 154.23 24.2733 154.23 23.6208V9.26562C154.23 8.61311 153.926 8.28686 153.319 8.28686H148.698ZM163.536 28.0579C163.536 29.1019 163.178 30.0589 162.462 30.9289C161.746 31.7989 160.694 32.2339 159.306 32.2339L164.251 47.3069H154.49L149.935 32.2339H148.698V47.3069H139.262V0H157.158C159.371 0 160.987 0.554633 162.006 1.6639C163.026 2.77316 163.536 4.26303 163.536 6.13358V28.0579ZM177.006 8.28686V24.5996H181.627C182.234 24.5996 182.538 24.2733 182.538 23.6208V9.26562C182.538 8.61311 182.234 8.28686 181.627 8.28686H177.006ZM191.844 28.0579C191.844 29.1019 191.486 30.0589 190.77 30.9289C190.054 31.7989 189.002 32.2339 187.614 32.2339L192.559 47.3069H182.798L178.243 32.2339H177.006V47.3069H167.57V0H185.466C187.679 0 189.295 0.554633 190.314 1.6639C191.334 2.77316 191.844 4.26303 191.844 6.13358V28.0579Z" fill="white"/>
</g>
</svg>
